<svg width="24" height="31" viewBox="0 0 24 31" fill="none" xmlns="http://www.w3.org/2000/svg">
<path d="M2.95215 3.22314C2.95215 2.39814 3.24565 1.69214 3.83265 1.10514C4.42065 0.517144 5.12715 0.223144 5.95215 0.223144L17.9521 0.223144C18.7771 0.223144 19.4831 0.517145 20.0701 1.10514C20.6581 1.69214 20.9521 2.39814 20.9521 3.22314L20.9521 27.2231C20.9521 28.0481 20.6581 28.7546 20.0701 29.3426C19.4831 29.9296 18.7771 30.2231 17.9521 30.2231L5.95215 30.2231C5.12715 30.2231 4.42065 29.9296 3.83265 29.3426C3.24565 28.7546 2.95215 28.0481 2.95215 27.2231L2.95215 3.22314ZM7.45215 9.22314C7.45215 9.64814 7.59615 10.0046 7.88415 10.2926C8.17115 10.5796 8.52715 10.7231 8.95215 10.7231L10.4521 10.7231L10.4521 12.2231C10.4521 12.6481 10.5961 13.0046 10.8841 13.2926C11.1711 13.5796 11.5271 13.7231 11.9521 13.7231C12.3771 13.7231 12.7336 13.5796 13.0216 13.2926C13.3086 13.0046 13.4521 12.6481 13.4521 12.2231L13.4521 10.7231L14.9521 10.7231C15.3771 10.7231 15.7336 10.5796 16.0216 10.2926C16.3086 10.0046 16.4521 9.64814 16.4521 9.22314C16.4521 8.79814 16.3086 8.44164 16.0216 8.15364C15.7336 7.86664 15.3771 7.72314 14.9521 7.72314L13.4521 7.72314L13.4521 6.22314C13.4521 5.79814 13.3086 5.44164 13.0216 5.15364C12.7336 4.86664 12.3771 4.72314 11.9521 4.72314C11.5271 4.72314 11.1711 4.86664 10.8841 5.15364C10.5961 5.44164 10.4521 5.79814 10.4521 6.22314L10.4521 7.72314L8.95215 7.72314C8.52715 7.72314 8.17115 7.86664 7.88415 8.15364C7.59615 8.44164 7.45215 8.79814 7.45215 9.22314ZM7.45215 18.9731C7.45215 19.5981 7.67115 20.1291 8.10915 20.5661C8.54615 21.0041 9.07715 21.2231 9.70215 21.2231C10.3271 21.2231 10.8581 21.0041 11.2951 20.5661C11.7331 20.1291 11.9521 19.5981 11.9521 18.9731C11.9521 18.3481 11.7331 17.8171 11.2951 17.3801C10.8581 16.9421 10.3271 16.7231 9.70215 16.7231C9.07715 16.7231 8.54615 16.9421 8.10915 17.3801C7.67115 17.8171 7.45215 18.3481 7.45215 18.9731ZM11.9521 23.4731C11.9521 24.0981 12.1711 24.6291 12.6091 25.0661C13.0461 25.5041 13.5771 25.7231 14.2021 25.7231C14.8271 25.7231 15.3581 25.5041 15.7951 25.0661C16.2331 24.6291 16.4521 24.0981 16.4521 23.4731C16.4521 22.8481 16.2331 22.3171 15.7951 21.8801C15.3581 21.4421 14.8271 21.2231 14.2021 21.2231C13.5771 21.2231 13.0461 21.4421 12.6091 21.8801C12.1711 22.3171 11.9521 22.8481 11.9521 23.4731Z" fill="#2B788B" style="fill:#2B788B;fill:color(display-p3 0.1686 0.4706 0.5451);fill-opacity:1;"/>
</svg>
