<svg width="26" height="18" viewBox="0 0 26 18" fill="none" xmlns="http://www.w3.org/2000/svg">
<path fill-rule="evenodd" clip-rule="evenodd" d="M22.8215 0.482143C23.9465 0.803572 24.75 1.60715 25.0715 2.73215C25.7143 4.82143 25.7143 9.00001 25.7143 9.00001C25.7143 9.00001 25.7143 13.1786 25.2322 15.2679C24.9108 16.3929 24.1071 17.1964 22.9821 17.5179C20.8929 18 12.8572 18 12.8572 18C12.8572 18 4.66071 18 2.73214 17.5179C1.60714 17.1964 0.803577 16.3929 0.482148 15.2679C4.59808e-06 13.1786 0 9.00001 0 9.00001C0 9.00001 -4.59808e-06 4.82143 0.321424 2.73215C0.642852 1.60715 1.44644 0.803572 2.57144 0.482143C4.66073 0 12.6964 0 12.6964 0C12.6964 0 20.8929 0 22.8215 0.482143ZM10.2857 5.84893C10.2857 5.53432 10.6256 5.33708 10.8988 5.49317L16.4131 8.64424C16.6884 8.80154 16.6884 9.19847 16.4132 9.35577L10.8988 12.5068C10.6256 12.6629 10.2857 12.4657 10.2857 12.1511V5.84893Z" fill="#BABABA" style="fill:#BABABA;fill:color(display-p3 0.7292 0.7292 0.7292);fill-opacity:1;"/>
</svg>
