<svg width="48" height="48" viewBox="0 0 48 48" fill="none" xmlns="http://www.w3.org/2000/svg">
<path d="M38.3688 7.2384C38.3124 6.89999 38.1841 6.57759 37.9926 6.29296C37.801 6.00832 37.5507 5.76807 37.2584 5.58838C36.9661 5.4087 36.6387 5.29377 36.2983 5.25134C35.9578 5.2089 35.6122 5.23996 35.2848 5.3424L18.4848 10.5912C17.9963 10.7437 17.5693 11.0484 17.2662 11.4607C16.9631 11.873 16.7998 12.3715 16.8 12.8832V32.4C15.7187 31.589 14.3953 31.1669 13.0441 31.202C11.6929 31.2371 10.3932 31.7274 9.35551 32.5935C8.31781 33.4595 7.60291 34.6506 7.32666 35.9737C7.0504 37.2968 7.22897 38.6744 7.83343 39.8833C8.4379 41.0922 9.43284 42.0616 10.6571 42.6345C11.8813 43.2073 13.2631 43.35 14.5785 43.0395C15.894 42.729 17.066 41.9834 17.9048 40.9235C18.7436 39.8636 19.2 38.5516 19.2 37.2V20.0832L36 14.832V21.6552C36.8232 21.7272 37.6272 21.8784 38.4 22.0968V7.632C38.4 7.4976 38.388 7.368 38.3688 7.2384ZM45.6 34.8C45.6 37.6643 44.4621 40.4114 42.4367 42.4368C40.4114 44.4621 37.6643 45.6 34.8 45.6C31.9357 45.6 29.1886 44.4621 27.1632 42.4368C25.1379 40.4114 24 37.6643 24 34.8C24 31.9357 25.1379 29.1886 27.1632 27.1632C29.1886 25.1379 31.9357 24 34.8 24C37.6643 24 40.4114 25.1379 42.4367 27.1632C44.4621 29.1886 45.6 31.9357 45.6 34.8ZM40.1688 33.756L32.9832 29.796C32.8006 29.695 32.5948 29.6434 32.3862 29.6462C32.1775 29.649 31.9732 29.7062 31.7934 29.8121C31.6136 29.918 31.4645 30.0689 31.3609 30.25C31.2572 30.4311 31.2026 30.6361 31.2024 30.8448V38.7648C31.2022 38.9737 31.2565 39.179 31.36 39.3604C31.4635 39.5418 31.6125 39.6931 31.7924 39.7993C31.9723 39.9055 32.1767 39.9629 32.3856 39.9658C32.5944 39.9687 32.8004 39.9171 32.9832 39.816L40.1688 35.856C40.3564 35.7522 40.5127 35.6001 40.6216 35.4155C40.7304 35.2308 40.7878 35.0204 40.7878 34.806C40.7878 34.5916 40.7304 34.3812 40.6216 34.1966C40.5127 34.0119 40.3564 33.8598 40.1688 33.756Z" fill="#F6F5F4" style="fill:#F6F5F4;fill:color(display-p3 0.9647 0.9608 0.9569);fill-opacity:1;"/>
</svg>
