<svg width="30" height="24" viewBox="0 0 30 24" fill="none" xmlns="http://www.w3.org/2000/svg">
<path d="M12.2139 15.7616C12.2139 16.8432 11.6505 18.6129 10.317 18.6129C8.9834 18.6129 8.41999 16.8432 8.41999 15.7616C8.41999 14.6801 8.9834 12.9103 10.317 12.9103C11.6505 12.9103 12.2139 14.6801 12.2139 15.7616ZM27.4051 13.1483C27.4051 14.7991 27.2397 16.5482 26.5005 18.0644C24.5416 22.0283 19.1556 21.9352 15.2997 21.9352C11.3817 21.9352 5.67535 22.0749 3.63883 18.0644C2.88418 16.5637 2.59473 14.7991 2.59473 13.1483C2.59473 10.9801 3.31319 8.93087 4.73979 7.26976C4.47101 6.45214 4.34179 5.59312 4.34179 4.74445C4.34179 3.63187 4.59506 3.07299 5.09644 2.0639C7.43792 2.0639 8.93688 2.52964 10.7201 3.92683C12.2191 3.56977 13.7594 3.40935 15.3049 3.40935C16.7005 3.40935 18.1064 3.55942 19.4606 3.88544C21.218 2.50376 22.717 2.0639 25.0326 2.0639C25.5391 3.07299 25.7872 3.63187 25.7872 4.74445C25.7872 5.59312 25.6529 6.43662 25.3892 7.23871C26.8107 8.91535 27.4051 10.9801 27.4051 13.1483ZM24.0815 15.7616C24.0815 13.4899 22.7015 11.4872 20.2824 11.4872C19.3055 11.4872 18.37 11.6632 17.3879 11.7977C16.6178 11.9167 15.8476 11.9633 15.0568 11.9633C14.2711 11.9633 13.5009 11.9167 12.7256 11.7977C11.7591 11.6632 10.8132 11.4872 9.83108 11.4872C7.41207 11.4872 6.032 13.4899 6.032 15.7616C6.032 20.3051 10.1877 21.0037 13.8059 21.0037H16.2973C19.931 21.0037 24.0815 20.3103 24.0815 15.7616ZM19.8121 12.9103C18.4785 12.9103 17.9151 14.6801 17.9151 15.7616C17.9151 16.8432 18.4785 18.6129 19.8121 18.6129C21.1456 18.6129 21.709 16.8432 21.709 15.7616C21.709 14.6801 21.1456 12.9103 19.8121 12.9103Z" fill="#BABABA" style="fill:#BABABA;fill:color(display-p3 0.7292 0.7292 0.7292);fill-opacity:1;"/>
</svg>
