<svg width="24" height="30" viewBox="0 0 24 30" fill="none" xmlns="http://www.w3.org/2000/svg">
<path d="M23.9581 0.271429C23.9218 0.190212 23.8627 0.121308 23.7879 0.0731158C23.7131 0.0249231 23.6259 -0.000478199 23.537 6.81817e-06H10.4993C10.421 0.000137259 10.344 0.0199126 10.2753 0.0575215C10.2066 0.0951303 10.1485 0.14937 10.1062 0.215273L0.0822927 16.1263C0.0340346 16.1955 0.00583928 16.2768 0.000813371 16.3611C-0.00421254 16.4454 0.014126 16.5294 0.0538087 16.6039C0.0934913 16.6785 0.152978 16.7406 0.225712 16.7835C0.298447 16.8263 0.381607 16.8483 0.466028 16.8469H7.64469L1.30837 29.2481C1.272 29.3219 1.2549 29.4037 1.25868 29.4858C1.26245 29.568 1.28698 29.6478 1.32998 29.7179C1.37297 29.788 1.43303 29.8461 1.50454 29.8867C1.57605 29.9273 1.65668 29.9491 1.73891 29.9501H4.54673C4.61168 29.9505 4.67602 29.9374 4.73564 29.9117C4.79526 29.8859 4.84886 29.848 4.89303 29.8003L21.3375 12.0268C21.4028 11.9603 21.4467 11.8758 21.4636 11.7841C21.4806 11.6924 21.4697 11.5978 21.4325 11.5123C21.3953 11.4269 21.3334 11.3544 21.2548 11.3044C21.1762 11.2543 21.0844 11.2288 20.9912 11.2313H14.683L23.8833 0.767478C23.9426 0.701003 23.9812 0.618691 23.9945 0.530599C24.0078 0.442507 23.9952 0.35245 23.9581 0.271429Z" fill="#2B788B" style="fill:#2B788B;fill:color(display-p3 0.1686 0.4706 0.5451);fill-opacity:1;"/>
</svg>
