<svg width="21" height="21" viewBox="0 0 21 21" fill="none" xmlns="http://www.w3.org/2000/svg">
<path d="M15.8028 16.788L16.4778 16.1175C19.6008 16.2195 19.6488 16.11 19.7861 15.789L20.6441 13.7002L20.7079 13.5022L20.6381 13.3289C20.6014 13.2374 20.4881 12.9644 18.5381 11.1051V10.1271C20.7881 7.95957 20.7401 7.84857 20.6119 7.53132L19.7576 5.42078C19.6293 5.10427 19.5806 4.98052 16.48 5.06527L15.805 4.36776C15.8747 3.34032 15.8393 2.30845 15.6993 1.28821L15.6123 1.09095L13.3817 0.115936C13.0532 -0.0340661 12.9377 -0.088067 10.8317 2.20547L9.88517 2.19122C7.71688 -0.123318 7.61413 -0.081317 7.28938 0.0499353L5.21559 0.88845C4.89084 1.0197 4.77608 1.0662 4.90209 4.21626L4.23232 4.88377C1.11077 4.78177 1.06277 4.89277 0.927016 5.21227L0.0675013 7.30181L0 7.50207L0.0705013 7.67607C0.107252 7.76607 0.216004 8.03607 2.17054 9.89761V10.8726C-0.0795012 13.0402 -0.0307505 13.1512 0.0982517 13.4692L0.951767 15.582C1.08227 15.9052 1.12877 16.02 4.22857 15.939L4.90359 16.6402C4.83362 17.6661 4.86805 18.6964 5.00634 19.7153L5.09334 19.914L7.33813 20.895C7.66438 21.0316 7.77764 21.0803 9.87767 18.795L10.8242 18.807C12.9955 21.1246 13.1065 21.0796 13.4237 20.9513L15.493 20.115C15.82 19.9853 15.934 19.9395 15.8028 16.788ZM6.90912 11.8949C6.64741 11.2109 6.59352 10.4649 6.75423 9.75041C6.91494 9.03592 7.28308 8.38482 7.81246 7.87878C8.34183 7.37275 9.00887 7.03433 9.72987 6.90598C10.4509 6.77764 11.1937 6.86509 11.8652 7.15737C12.5367 7.44964 13.1069 7.93371 13.5043 8.54885C13.9017 9.16399 14.1085 9.88279 14.0989 10.6151C14.0893 11.3473 13.8636 12.0605 13.4502 12.6649C13.0368 13.2694 12.4541 13.7384 11.7752 14.0129C10.8489 14.3752 9.81679 14.3557 8.90481 13.9587C7.99282 13.5618 7.27524 12.8197 6.90912 11.8949Z" fill="white" style="fill:white;fill-opacity:1;"/>
</svg>
