<svg width="25" height="24" viewBox="0 0 25 24" fill="none" xmlns="http://www.w3.org/2000/svg">
<path d="M18.6136 2.86929e-05C19.7261 2.86929e-05 20.7638 0.267465 21.7266 0.802339C22.7107 1.31582 23.5024 2.09673 24.1014 3.14509C24.7005 4.19344 25 5.45574 25 6.93199C25 8.87893 24.5186 10.8687 23.5558 12.9012C22.6145 14.9337 21.2024 16.8486 19.3196 18.6457C17.4369 20.4215 15.169 21.9192 12.516 23.1387C9.84168 21.9192 7.56312 20.4215 5.68036 18.6457C3.7976 16.8699 2.37484 14.9765 1.41207 12.9654C0.470689 10.9542 2.39107e-07 8.96451 2.39107e-07 6.99618C2.39107e-07 5.49853 0.29953 4.22553 0.898588 3.17718C1.49765 2.12882 2.28926 1.33721 3.27343 0.802339C4.2576 0.267465 5.30595 2.86929e-05 6.41849 2.86929e-05C7.78776 2.86929e-05 8.99658 0.46002 10.0449 1.38C11.1147 2.27859 11.9384 3.53019 12.516 5.13482C13.0723 3.53019 13.8853 2.27859 14.9551 1.38C16.0462 0.46002 17.2657 2.86929e-05 18.6136 2.86929e-05Z" fill="#F2D4DC" style="fill:#F2D4DC;fill:color(display-p3 0.9500 0.8313 0.8632);fill-opacity:1;"/>
</svg>
