<svg width="60" height="60" viewBox="0 0 60 60" fill="none" xmlns="http://www.w3.org/2000/svg">
<path d="M47.961 9.04801C47.8905 8.62498 47.7301 8.22199 47.4907 7.8662C47.2513 7.51041 46.9383 7.21008 46.573 6.98548C46.2077 6.76088 45.7984 6.61721 45.3728 6.56417C44.9473 6.51113 44.5153 6.54995 44.106 6.67801L23.106 13.239C22.4954 13.4296 21.9617 13.8105 21.5828 14.3259C21.2039 14.8413 20.9997 15.4643 21 16.104V40.5C19.6484 39.4863 17.9941 38.9586 16.3051 39.0025C14.6162 39.0464 12.9915 39.6593 11.6944 40.7419C10.3973 41.8244 9.50365 43.3132 9.15833 44.9671C8.81301 46.6209 9.03622 48.343 9.7918 49.8541C10.5474 51.3653 11.7911 52.577 13.3213 53.2931C14.8516 54.0092 16.5788 54.1875 18.2231 53.7994C19.8675 53.4112 21.3326 52.4792 22.3811 51.1544C23.4295 49.8296 24 48.1895 24 46.5V25.104L45 18.54V27.069C46.029 27.159 47.034 27.348 48 27.621V9.54001C48 9.37201 47.985 9.21001 47.961 9.04801ZM57 43.5C57 47.0804 55.5777 50.5142 53.0459 53.0459C50.5142 55.5777 47.0804 57 43.5 57C39.9196 57 36.4858 55.5777 33.9541 53.0459C31.4223 50.5142 30 47.0804 30 43.5C30 39.9196 31.4223 36.4858 33.9541 33.9541C36.4858 31.4223 39.9196 30 43.5 30C47.0804 30 50.5142 31.4223 53.0459 33.9541C55.5777 36.4858 57 39.9196 57 43.5ZM50.211 42.195L41.229 37.245C41.0008 37.1188 40.7435 37.0542 40.4827 37.0577C40.2219 37.0613 39.9665 37.1327 39.7418 37.2651C39.517 37.3975 39.3307 37.5862 39.2011 37.8125C39.0716 38.0389 39.0033 38.2952 39.003 38.556V48.456C39.0028 48.7171 39.0707 48.9737 39.2 49.2005C39.3294 49.4273 39.5157 49.6164 39.7405 49.7491C39.9653 49.8819 40.2209 49.9536 40.482 49.9573C40.743 49.9609 41.0005 49.8964 41.229 49.77L50.211 44.82C50.4454 44.6903 50.6409 44.5001 50.777 44.2693C50.913 44.0385 50.9848 43.7754 50.9848 43.5075C50.9848 43.2396 50.913 42.9765 50.777 42.7457C50.6409 42.5149 50.4454 42.3247 50.211 42.195Z" fill="#2B788B" style="fill:#2B788B;fill:color(display-p3 0.1686 0.4706 0.5451);fill-opacity:1;"/>
</svg>
