<svg width="21" height="21" viewBox="0 0 21 21" fill="none" xmlns="http://www.w3.org/2000/svg">
<path d="M15.8027 16.7879L16.4777 16.1174C19.6007 16.2194 19.6487 16.1099 19.786 15.7889L20.644 13.7001L20.7077 13.5021L20.638 13.3288C20.6012 13.2373 20.488 12.9643 18.538 11.1051V10.1271C20.788 7.95953 20.74 7.84853 20.6117 7.53127L19.7575 5.42075C19.6292 5.10424 19.5805 4.98049 16.4799 5.06524L15.8049 4.36774C15.8746 3.3403 15.8392 2.30843 15.6992 1.2882L15.6122 1.09095L13.3817 0.115936C13.0532 -0.0340659 12.9377 -0.0880665 10.8316 2.20546L9.88512 2.19121C7.71684 -0.123317 7.61409 -0.0813165 7.28933 0.049935L5.21556 0.888445C4.89081 1.0197 4.77606 1.0662 4.90206 4.21623L4.2323 4.88374C1.11076 4.78174 1.06276 4.89274 0.927011 5.21224L0.0675009 7.30177L0 7.50202L0.0705009 7.67602C0.107251 7.76603 0.216003 8.03603 2.17053 9.89755V10.8726C-0.0795007 13.0401 -0.0307503 13.1511 0.0982512 13.4691L0.951761 15.5819C1.08226 15.9051 1.12876 16.0199 4.22855 15.9389L4.90356 16.6401C4.83359 17.666 4.86802 18.6963 5.00631 19.7152L5.09331 19.9139L7.33809 20.8949C7.66434 21.0314 7.77759 21.0802 9.87762 18.7949L10.8241 18.8069C12.9954 21.1244 13.1064 21.0794 13.4237 20.9512L15.4929 20.1149C15.8199 19.9852 15.9339 19.9394 15.8027 16.7879ZM6.90908 11.8948C6.64737 11.2109 6.59349 10.4648 6.75419 9.75035C6.9149 9.03587 7.28303 8.38477 7.81241 7.87874C8.34178 7.3727 9.00882 7.03429 9.72981 6.90594C10.4508 6.7776 11.1936 6.86505 11.8651 7.15733C12.5366 7.4496 13.1068 7.93367 13.5042 8.5488C13.9016 9.16394 14.1084 9.88273 14.0988 10.615C14.0892 11.3473 13.8636 12.0604 13.4502 12.6649C13.0368 13.2694 12.4541 13.7383 11.7751 14.0128C10.8488 14.3751 9.81673 14.3556 8.90475 13.9586C7.99278 13.5617 7.2752 12.8196 6.90908 11.8948Z" fill="#BABABA" style="fill:#BABABA;fill:color(display-p3 0.7292 0.7292 0.7292);fill-opacity:1;"/>
</svg>
