<svg width="30" height="24" viewBox="0 0 30 24" fill="none" xmlns="http://www.w3.org/2000/svg">
<path d="M8.70851 13.4866H16.6451V21.1815H13.3738L12.9835 17.8916C12.6117 19.0688 11.9488 19.9424 10.9947 20.5124C10.0406 21.0824 8.8758 21.3673 7.50038 21.3673C6.24887 21.3673 5.13367 21.0886 4.15477 20.531C3.18826 19.9734 2.4262 19.1741 1.8686 18.1333C1.32339 17.0924 1.05078 15.8781 1.05078 14.4903C1.05078 12.2723 1.71371 10.5189 3.03956 9.23022C4.36542 7.94154 6.42854 7.2972 9.22894 7.2972C10.8274 7.2972 12.2338 7.55742 13.4481 8.07784C14.6749 8.59827 15.7157 9.4037 16.5707 10.4941C16.0131 10.7791 14.9227 11.3491 13.2994 12.2041L12.8348 12.4643C12.3515 11.9811 11.7877 11.6217 11.1434 11.3863C10.499 11.1385 9.81752 11.0145 9.09883 11.0145C7.90928 11.0145 7.02332 11.3305 6.44093 11.9625C5.85855 12.582 5.56736 13.3503 5.56736 14.2672C5.56736 15.2585 5.87714 16.0577 6.49669 16.6649C7.12864 17.2721 8.08896 17.5757 9.37764 17.5757C9.93524 17.5757 10.4743 17.4951 10.9947 17.334C11.5275 17.173 11.9736 16.8942 12.3329 16.4976H8.70851V13.4866Z" fill="#BABABA" style="fill:#BABABA;fill:color(display-p3 0.7292 0.7292 0.7292);fill-opacity:1;"/>
<path d="M28.9495 6.53609C27.0041 6.47413 25.1144 6.43696 23.2805 6.42457V16.1268H18.6338V6.42457C16.7875 6.43696 14.9041 6.47413 12.9835 6.53609V2.63288H28.9495V6.53609Z" fill="#BABABA" style="fill:#BABABA;fill:color(display-p3 0.7292 0.7292 0.7292);fill-opacity:1;"/>
</svg>
