<svg width="20" height="21" viewBox="0 0 20 21" fill="none" xmlns="http://www.w3.org/2000/svg">
<path d="M16.2148 1.04331C16.1854 0.867254 16.1187 0.699537 16.019 0.551463C15.9194 0.40339 15.7892 0.278402 15.6371 0.184926C15.4851 0.0914508 15.3148 0.0316604 15.1376 0.009586C14.9605 -0.0124883 14.7807 0.0036666 14.6104 0.0569615L5.87063 2.78752C5.6165 2.86685 5.39439 3.02534 5.23671 3.23985C5.07903 3.45435 4.99404 3.71365 4.99416 3.97987V14.133C4.43164 13.7111 3.74316 13.4915 3.04025 13.5098C2.33734 13.528 1.6612 13.7831 1.12136 14.2336C0.581515 14.6842 0.20961 15.3038 0.0658956 15.9921C-0.0778188 16.6804 0.0150774 17.3971 0.329533 18.026C0.643989 18.6549 1.16158 19.1592 1.79845 19.4572C2.43532 19.7552 3.15415 19.8295 3.83849 19.6679C4.52282 19.5064 5.13257 19.1185 5.56893 18.5671C6.00529 18.0158 6.2427 17.3332 6.2427 16.6301V7.72549L14.9825 4.99368V8.54328C15.4107 8.58074 15.829 8.65939 16.231 8.77301V1.24807C16.231 1.17815 16.2248 1.11073 16.2148 1.04331ZM19.9766 15.3815C19.9766 16.8716 19.3847 18.3007 18.331 19.3544C17.2774 20.408 15.8483 21 14.3582 21C12.8681 21 11.439 20.408 10.3854 19.3544C9.33172 18.3007 8.73978 16.8716 8.73978 15.3815C8.73978 13.8914 9.33172 12.4624 10.3854 11.4087C11.439 10.355 12.8681 9.7631 14.3582 9.7631C15.8483 9.7631 17.2774 10.355 18.331 11.4087C19.3847 12.4624 19.9766 13.8914 19.9766 15.3815ZM17.1512 14.8384L13.4131 12.7783C13.3181 12.7258 13.211 12.6989 13.1025 12.7004C12.9939 12.7019 12.8876 12.7316 12.7941 12.7867C12.7006 12.8418 12.623 12.9203 12.5691 13.0145C12.5152 13.1087 12.4868 13.2154 12.4866 13.3239V17.4441C12.4865 17.5528 12.5148 17.6596 12.5686 17.754C12.6225 17.8483 12.7 17.9271 12.7936 17.9823C12.8871 18.0375 12.9935 18.0674 13.1022 18.0689C13.2108 18.0704 13.318 18.0436 13.4131 17.991L17.1512 15.9309C17.2488 15.8769 17.3301 15.7978 17.3867 15.7017C17.4434 15.6056 17.4732 15.4962 17.4732 15.3846C17.4732 15.2731 17.4434 15.1637 17.3867 15.0676C17.3301 14.9715 17.2488 14.8924 17.1512 14.8384Z" fill="white" style="fill:white;fill-opacity:1;"/>
</svg>
