<svg width="24" height="30" viewBox="0 0 24 30" fill="none" xmlns="http://www.w3.org/2000/svg">
<path d="M23.9585 0.271882C23.9221 0.190528 23.863 0.121511 23.7882 0.0732376C23.7134 0.0249646 23.6262 -0.000478996 23.5373 6.82952e-06H10.4995C10.4212 0.000137488 10.3441 0.0199458 10.2755 0.0576173C10.2068 0.0952888 10.1486 0.149619 10.1064 0.215632L0.0822939 16.1531C0.0340351 16.2225 0.00583936 16.3039 0.000813382 16.3883C-0.00421259 16.4728 0.0141262 16.5569 0.0538094 16.6316C0.0934926 16.7062 0.15298 16.7685 0.225716 16.8114C0.298451 16.8544 0.381612 16.8764 0.466035 16.875H7.64479L1.30839 29.2969C1.27201 29.3707 1.25491 29.4526 1.25869 29.5349C1.26247 29.6172 1.287 29.6972 1.33 29.7674C1.37299 29.8376 1.43305 29.8958 1.50456 29.9365C1.57607 29.9771 1.6567 29.999 1.73893 30H4.54679C4.61175 30.0004 4.67608 29.9873 4.7357 29.9615C4.79532 29.9357 4.84892 29.8977 4.89309 29.85L21.3378 12.0469C21.4031 11.9802 21.447 11.8956 21.4639 11.8037C21.4809 11.7119 21.47 11.6171 21.4328 11.5315C21.3956 11.4459 21.3337 11.3734 21.2551 11.3232C21.1765 11.273 21.0847 11.2476 20.9915 11.25H14.6832L23.8836 0.768756C23.9429 0.70217 23.9816 0.619722 23.9949 0.531483C24.0082 0.443245 23.9955 0.353037 23.9585 0.271882Z" fill="#2B788B" style="fill:#2B788B;fill:color(display-p3 0.1686 0.4706 0.5451);fill-opacity:1;"/>
</svg>
